<svg width="15" height="18" viewBox="0 0 15 18" fill="none" xmlns="http://www.w3.org/2000/svg">
<path d="M1.41016 5.397C1.41016 3.97566 1.41016 3.265 1.63795 2.72212C1.83833 2.24459 2.15806 1.85635 2.55132 1.61304C2.99839 1.33643 3.58365 1.33643 4.75416 1.33643H10.6062C11.7767 1.33643 12.3619 1.33643 12.809 1.61304C13.2023 1.85635 13.522 2.24459 13.7224 2.72212C13.9502 3.265 13.9502 3.97566 13.9502 5.397V12.503C13.9502 13.9243 13.9502 14.635 13.7224 15.1779C13.522 15.6554 13.2023 16.0436 12.809 16.287C12.3619 16.5636 11.7767 16.5636 10.6062 16.5636H4.75416C3.58365 16.5636 2.99839 16.5636 2.55132 16.287C2.15806 16.0436 1.83833 15.6554 1.63795 15.1779C1.41016 14.635 1.41016 13.9243 1.41016 12.503V5.397Z" stroke="white" stroke-width="2" stroke-linecap="round" stroke-linejoin="round"/>
</svg>
