<svg width="25" height="25" viewBox="0 0 25 25" fill="none" xmlns="http://www.w3.org/2000/svg">
<path d="M16.3979 8.66667H4.19445C2.4302 8.66667 1 7.23647 1 5.47222C1 3.70798 2.4302 2.27778 4.19444 2.27778H16.3979M8.60213 22.7222H20.8056C22.5698 22.7222 24 21.292 24 19.5278C24 17.7635 22.5698 16.3333 20.8056 16.3333H8.60213M1 19.5278C1 21.9977 3.00228 24 5.47222 24C7.94216 24 9.94444 21.9977 9.94444 19.5278C9.94444 17.0578 7.94216 15.0556 5.47222 15.0556C3.00228 15.0556 1 17.0578 1 19.5278ZM24 5.47222C24 7.94216 21.9977 9.94444 19.5278 9.94444C17.0578 9.94444 15.0556 7.94216 15.0556 5.47222C15.0556 3.00228 17.0578 1 19.5278 1C21.9977 1 24 3.00228 24 5.47222Z" stroke="#0C98B4" stroke-width="2" stroke-linecap="round" stroke-linejoin="round"/>
</svg>
