<!DOCTYPE svg PUBLIC "-//W3C//DTD SVG 1.1//EN" "http://www.w3.org/Graphics/SVG/1.1/DTD/svg11.dtd">
<!-- Uploaded to: SVG Repo, www.svgrepo.com, Transformed by: SVG Repo Mixer Tools -->
<svg fill="#000000" width="800px" height="800px" viewBox="0 0 24 24" id="user-10" data-name="Line Color" xmlns="http://www.w3.org/2000/svg" class="icon line-color">
<g id="SVGRepo_bgCarrier" stroke-width="0"/>
<g id="SVGRepo_tracerCarrier" stroke-linecap="round" stroke-linejoin="round"/>
<g id="SVGRepo_iconCarrier">
<path id="primary" d="M16.66,12.77A5.93,5.93,0,0,0,17.92,8,6,6,0,0,0,6,9a5.94,5.94,0,0,0,1.34,3.77,1,1,0,0,1-.28,1.45A7,7,0,0,0,4,20a1,1,0,0,0,1,1H19a1,1,0,0,0,1-1,7,7,0,0,0-3.06-5.78A1,1,0,0,1,16.66,12.77Z" style="fill: none; stroke: #ffffff; stroke-linecap: round; stroke-linejoin: round; stroke-width: 2;"/>
</g>
</svg>