<?xml version="1.0" encoding="UTF-8"?><!DOCTYPE svg PUBLIC "-//W3C//DTD SVG 1.1//EN" "http://www.w3.org/Graphics/SVG/1.1/DTD/svg11.dtd"><svg xmlns="http://www.w3.org/2000/svg" xmlns:xlink="http://www.w3.org/1999/xlink" version="1.1" id="Layer_1" x="0px" y="0px" width="512px" height="512px" viewBox="0 0 512 512" xml:space="preserve"><path d="M281.7 311.9c.4-6.9 8.3-4.5 8.3-4.5l62 12.6 128 48.7c0-24-3.8-26.5-9.4-30.7L288 207s-4.9-60-4.9-112.9c0-24.5-11.8-78.1-27.1-78.1s-27.1 54.4-27.1 78.1c0 50.2-4.9 112.9-4.9 112.9L41.4 338c-7.1 5-9.4 7.7-9.4 30.7L160 320l61.9-12.6s7.9-2.4 8.3 4.5c.4 6.9-1.2 69.1 5.9 102.1.9 4.4-2.5 4.7-4.8 7.4l-51.9 32.8c-1.7 1.9-2.5 7.3-2.5 7.3l-1 18.5 68-16 12 32 12-32 68 16-1-18.5c.1 0-.7-5.4-2.4-7.3l-51.9-32.8c-2.3-2.7-5.7-3-4.8-7.4 6.9-33 5.5-95.2 5.9-102.1z"/><metadata><rdf:RDF xmlns:rdf="http://www.w3.org/1999/02/22-rdf-syntax-ns#" xmlns:rdfs="http://www.w3.org/2000/01/rdf-schema#" xmlns:dc="http://purl.org/dc/elements/1.1/"><rdf:Description about="https://iconscout.com/legal#licenses" dc:title="plane" dc:description="plane" dc:publisher="Iconscout" dc:date="2017-09-24" dc:format="image/svg+xml" dc:language="en"><dc:creator><rdf:Bag><rdf:li>Benjamin J Sperry</rdf:li></rdf:Bag></dc:creator></rdf:Description></rdf:RDF></metadata></svg>